<?xml version="1.0" standalone="no"?><!DOCTYPE svg PUBLIC "-//W3C//DTD SVG 1.1//EN" "http://www.w3.org/Graphics/SVG/1.1/DTD/svg11.dtd"><svg t="1573458992389" class="icon" viewBox="0 0 1170 1024" version="1.1" xmlns="http://www.w3.org/2000/svg" p-id="8695" xmlns:xlink="http://www.w3.org/1999/xlink" width="228.515625" height="200"><defs><style type="text/css"></style></defs><path d="M504.758857 1024C251.318857 1024 0 1019.245714 0 881.152c0-105.106286 118.710857-255.012571 286.976-322.304-76.470857-56.429714-126.500571-146.870857-126.500571-249.161143C160.475429 138.825143 299.373714 0 470.308571 0c170.934857 0 309.796571 138.605714 309.796572 309.686857a308.443429 308.443429 0 0 1-126.72 249.161143c175.762286 67.803429 287.195429 218.477714 287.195428 322.304C940.836571 1019.209143 758.272 1024 504.758857 1024z m527.872-142.848c0-103.570286-50.505143-247.990857-246.089143-317.732571 76.726857-56.466286 93.147429-173.494857 93.147429-275.785143 0-74.605714-67.547429-174.811429-111.469714-228.461715 141.787429 0 254.244571 148.809143 254.244571 291.913143 0 85.686857-15.908571 149.979429-79.250286 197.339429C1088.877714 605.110857 1170.285714 739.657143 1170.285714 833.024c0 99.364571 2.925714 116.150857-161.718857 118.930286 15.542857-18.651429 24.064-41.581714 24.064-70.802286z" p-id="8696" fill="#f4ea2a"></path></svg>